HIERARCHY
ROOT Hips
{
	OFFSET 173.408295 91.952423 -518.280273
	CHANNELS 6 Xposition Yposition Zposition Zrotation Yrotation Xrotation 
	JOINT LeftUpLeg
	{
		OFFSET 0.103459 1.857827 10.548504
		CHANNELS 3 Zrotation Yrotation Xrotation
		JOINT LeftLeg
		{
			OFFSET 43.500008 0.000000 0.000004
			CHANNELS 3 Zrotation Yrotation Xrotation
			JOINT LeftFoot
			{
				OFFSET 42.372192 0.000011 0.000000
				CHANNELS 3 Zrotation Yrotation Xrotation
				JOINT LeftToe
				{
					OFFSET 17.299973 -0.000013 -0.000010
					CHANNELS 3 Zrotation Yrotation Xrotation
					End Site
					{
						OFFSET 0.000000 0.000000 0.000000
					}
				}
			}
		}
	}
	JOINT RightUpLeg
	{
		OFFSET 0.103454 1.857830 -10.548500
		CHANNELS 3 Zrotation Yrotation Xrotation
		JOINT RightLeg
		{
			OFFSET 43.500038 -0.000038 0.000004
			CHANNELS 3 Zrotation Yrotation Xrotation
			JOINT RightFoot
			{
				OFFSET 42.372253 0.000019 0.000024
				CHANNELS 3 Zrotation Yrotation Xrotation
				JOINT RightToe
				{
					OFFSET 17.299988 -0.000007 0.000004
					CHANNELS 3 Zrotation Yrotation Xrotation
					End Site
					{
						OFFSET 0.000000 0.000000 0.000000
					}
				}
			}
		}
	}
	JOINT Spine
	{
		OFFSET 6.901963 -2.603744 0.000004
		CHANNELS 3 Zrotation Yrotation Xrotation
		JOINT Spine1
		{
			OFFSET 12.588104 0.000008 -0.000010
			CHANNELS 3 Zrotation Yrotation Xrotation
			JOINT Spine2
			{
				OFFSET 12.343202 -0.000005 0.000010
				CHANNELS 3 Zrotation Yrotation Xrotation
				JOINT Neck
				{
					OFFSET 25.832897 0.000000 0.000001
					CHANNELS 3 Zrotation Yrotation Xrotation
					JOINT Head
					{
						OFFSET 11.766611 -0.000006 -0.000000
						CHANNELS 3 Zrotation Yrotation Xrotation
						End Site
						{
							OFFSET 0.000000 0.000000 0.000000
						}
					}
				}
				JOINT LeftShoulder
				{
					OFFSET 19.745899 -1.480366 6.000108
					CHANNELS 3 Zrotation Yrotation Xrotation
					JOINT LeftArm
					{
						OFFSET 11.284111 -0.000018 -0.000015
						CHANNELS 3 Zrotation Yrotation Xrotation
						JOINT LeftForeArm
						{
							OFFSET 33.000050 -0.000005 0.000028
							CHANNELS 3 Zrotation Yrotation Xrotation
							JOINT LeftHand
							{
								OFFSET 25.200012 0.000000 0.000002
								CHANNELS 3 Zrotation Yrotation Xrotation
								End Site
								{
									OFFSET 0.000000 0.000000 0.000000
								}
							}
						}
					}
				}
				JOINT RightShoulder
				{
					OFFSET 19.746111 -1.480335 -6.000074
					CHANNELS 3 Zrotation Yrotation Xrotation
					JOINT RightArm
					{
						OFFSET 11.284151 0.000036 0.000001
						CHANNELS 3 Zrotation Yrotation Xrotation
						JOINT RightForeArm
						{
							OFFSET 33.000092 -0.000035 0.000022
							CHANNELS 3 Zrotation Yrotation Xrotation
							JOINT RightHand
							{
								OFFSET 25.199768 0.000178 0.000417
								CHANNELS 3 Zrotation Yrotation Xrotation
								End Site
								{
									OFFSET 0.000000 0.000000 0.000000
								}
							}
						}
					}
				}
			}
		}
	}
}
MOTION
Frames: 10
Frame Time: 0.033333
178.921097 88.250031 -480.027893 84.998938 -0.393150 94.461694 179.875928 -7.833408 171.253251 -47.205589 5.327347 4.326004 64.653560 -6.179049 -7.035111 21.454551 0.003080 0.000007 156.702763 -4.514891 -177.933613 -25.996868 4.593477 4.878158 72.298905 -3.403149 0.697209 21.454558 -0.003117 -0.000019 7.593996 1.783364 -0.865897 5.151690 3.603160 -1.652837 4.833045 3.593243 -1.674575 -7.921834 13.141016 -2.659843 19.554760 -24.799604 1.308930 142.630387 -78.120514 36.433359 -24.311710 64.071915 20.259914 -31.883272 -10.472384 0.973966 2.259464 -15.278616 12.485269 -161.264619 74.295690 20.619790 -16.635406 -57.134536 -28.058026 -31.601875 13.587972 -1.197102 3.306129 9.873026 -6.790688 
178.421494 88.252434 -477.461090 83.846965 -0.008826 94.875412 175.098497 -9.797303 172.152951 -56.294149 6.112306 3.332939 57.959421 -6.908114 -8.876805 21.454553 0.003090 0.000001 158.577062 -6.001407 -178.106444 -26.130422 4.952762 5.370596 74.084193 -3.844054 0.362617 21.454555 -0.003109 -0.000018 7.639042 2.114486 -0.912049 5.236612 4.267740 -1.729225 4.917711 4.257354 -1.754996 -7.213671 12.453615 -2.598110 19.387895 -24.865862 1.164543 139.992582 -79.355856 39.015926 -22.763118 65.394868 21.960134 -30.799526 -9.985100 0.920572 1.786603 -15.819924 12.450836 -160.873590 74.116842 21.022846 -17.585640 -56.240095 -27.866315 -32.045745 13.676114 -1.211957 3.247347 8.982354 -7.812282 
178.023697 88.247383 -474.830292 82.977250 0.575262 94.998717 170.790642 -11.230504 173.328754 -63.889630 6.477501 2.509899 54.169612 -7.415512 -10.233242 21.454545 0.003092 -0.000002 160.744144 -7.289708 -178.358533 -26.200904 5.248477 5.688317 75.733138 -4.171616 -0.068400 21.454553 -0.003098 -0.000016 7.734209 2.369646 -0.836026 5.427657 4.775573 -1.561895 5.108480 4.766180 -1.590756 -6.520319 11.497804 -2.567111 19.083955 -24.511235 0.955876 139.549289 -80.378001 39.391644 -20.742598 65.994579 24.581849 -31.106635 -9.947095 0.924092 0.871917 -16.371116 13.707565 -161.182383 73.913630 20.708997 -17.964280 -55.234483 -27.963257 -33.126079 14.004192 -1.256038 2.895478 9.171632 -8.166969 
177.729095 88.321907 -472.070892 82.628446 1.213298 94.659257 166.740354 -11.603189 174.268056 -69.445422 6.402755 2.454050 54.607878 -6.287996 -8.185560 21.454543 0.003094 -0.000001 163.282748 -8.158993 -178.610690 -26.024149 5.326412 5.627960 77.275797 -4.224162 -0.519568 21.454555 -0.003103 -0.000017 7.839233 2.471557 -0.635875 5.645897 4.970927 -1.152001 5.326565 4.964019 -1.182066 -5.732700 10.630026 -2.563371 18.736693 -23.983513 0.742873 142.682638 -81.115422 36.178491 -18.200572 65.887222 27.412413 -32.445390 -10.243744 0.970500 -0.090373 -16.491939 15.325421 -161.846605 73.672989 20.031010 -18.040770 -54.347569 -28.019333 -34.417634 14.427521 -1.311905 2.456335 10.210285 -7.975975 
177.558395 88.450043 -469.222290 82.762871 1.747003 93.980111 163.247696 -11.412392 174.868580 -72.403775 6.029664 3.056932 58.306347 -6.155694 -7.686681 21.454565 0.003095 0.000002 165.938012 -8.471001 -178.846837 -25.747698 5.324807 5.240432 78.745442 -4.064785 -1.066188 21.454558 -0.003102 -0.000016 7.902601 2.425821 -0.356930 5.784932 4.866285 -0.593195 5.465603 4.862735 -0.622622 -4.779301 10.004609 -2.597131 18.470411 -23.378124 0.517456 149.069002 -81.635807 29.698626 -15.401829 65.498618 29.603000 -34.221502 -10.617993 1.032774 -0.905387 -16.406270 16.576729 -162.227484 73.586471 19.641358 -17.970180 -53.956179 -27.777353 -35.659007 14.915231 -1.372000 2.115539 11.383484 -7.743374 
177.459900 88.481110 -466.352814 82.936528 2.124047 93.272018 159.880836 -11.007590 175.383221 -73.021429 5.556386 3.553739 60.044309 -6.271919 -7.494937 21.454543 0.003080 0.000007 168.330996 -8.571696 -178.827767 -25.769672 5.303498 4.663832 80.315040 -3.767275 -1.632013 21.454560 -0.003106 -0.000019 7.907521 2.339007 -0.054481 5.807189 4.677715 0.008019 5.487937 4.677815 -0.020286 -3.782984 9.582156 -2.707159 18.336531 -22.660795 0.230403 156.249429 -82.020607 22.424990 -12.374408 65.271426 31.053527 -36.051316 -10.993931 1.098625 -1.403429 -16.378018 17.030793 -162.012811 73.786657 19.859217 -17.734354 -54.184492 -27.204922 -36.964543 15.463895 -1.438769 1.922571 12.160806 -7.834068 
177.366699 88.455673 -463.444214 83.179335 2.366970 92.667478 156.646495 -10.299395 175.734415 -71.564666 4.978358 3.922759 62.166107 -5.354973 -5.231825 21.454543 0.003087 -0.000003 170.545889 -8.492701 -178.560160 -25.959672 5.246153 3.991431 81.934915 -3.388717 -2.180416 21.454560 -0.003113 -0.000017 7.871643 2.222975 0.237923 5.746035 4.431427 0.585859 5.426921 4.435001 0.559044 -2.953431 9.202789 -2.915429 18.255964 -21.826180 -0.140148 162.385015 -82.318751 16.211611 -9.336547 65.323424 31.994720 -37.662011 -11.392729 1.162958 -1.510222 -16.409321 16.562691 -161.400594 74.185027 20.481878 -17.327312 -54.755574 -26.529206 -38.564208 15.979409 -1.512177 1.807618 12.502783 -8.121089 
177.282196 88.477043 -460.515808 83.651150 2.490193 92.152393 153.879381 -9.476816 175.913298 -67.947801 4.233111 4.239570 66.823750 -4.889432 -4.261048 21.454553 0.003090 -0.000002 172.774785 -8.146502 -178.373259 -25.909706 5.176466 3.412214 83.372868 -3.048394 -2.627470 21.454555 -0.003111 -0.000017 7.821213 2.059770 0.510206 5.653196 4.092212 1.120647 5.334291 4.099046 1.095881 -2.409962 8.771994 -3.191530 18.109876 -21.001163 -0.546833 167.617091 -82.452336 10.918411 -6.816501 65.485272 32.371443 -38.752659 -11.798472 1.216442 -1.513077 -16.323934 15.669108 -161.001670 74.594087 20.885206 -16.850866 -55.215946 -26.081407 -40.439730 16.391815 -1.588129 1.632738 12.585399 -8.335658 
177.205399 88.558662 -457.616211 84.177990 2.495794 91.716456 151.789056 -8.674503 175.734484 -62.115981 3.521839 4.237161 70.305015 -4.637908 -4.170714 21.454551 0.003094 0.000002 175.043323 -7.758413 -178.476750 -25.407721 5.117279 3.092805 84.329190 -2.858626 -2.898813 21.454562 -0.003108 -0.000017 7.774038 1.891150 0.766996 5.564745 3.743395 1.624433 5.246046 3.753266 1.601779 -2.246665 8.315286 -3.460564 17.914131 -20.307402 -0.905274 172.295961 -82.370510 6.190499 -5.187460 65.681879 31.998050 -39.177053 -12.194767 1.253123 -1.624073 -16.172652 15.047627 -161.325312 74.979112 20.549007 -16.411104 -55.368471 -26.002501 -42.352774 16.719022 -1.662053 1.215007 12.643047 -8.566492 
177.128098 88.609779 -454.750397 84.561273 2.350485 91.371457 150.350359 -7.871200 174.764815 -54.119738 3.269141 4.026824 72.280613 -3.926474 -2.867633 21.454557 0.003099 0.000000 177.297395 -7.517197 -178.802126 -24.494535 5.085428 2.989215 84.977157 -2.790883 -3.003073 21.454560 -0.003107 -0.000018 7.719305 1.754595 1.012129 5.460092 3.459706 2.106437 5.141604 3.472496 2.085498 -2.450784 8.035170 -3.655113 17.714171 -19.859076 -1.118613 176.004385 -82.203212 2.443637 -4.300627 65.956815 31.176982 -39.063874 -12.525680 1.271949 -1.702108 -16.328993 14.785058 -162.424111 75.388507 19.419992 -15.988812 -55.321855 -26.265766 -44.048109 16.992358 -1.728568 0.437776 12.998130 -9.115777 
